<svg t="1724900999299" class="icon" viewBox="0 0 1024 1024" version="1.1" xmlns="http://www.w3.org/2000/svg" p-id="1572" width="200" height="200"><path d="M768 512v256h128l-170.666667 170.666667-170.666666-170.666667h128v-256h85.333333z m-256-384a384 384 0 0 1 383.829333 372.693333L896 512h-85.333333a298.666667 298.666667 0 1 0-308.906667 298.496L512 810.666667v85.333333a384 384 0 0 1 0-768z m42.666667 128v239.744l50.773333 50.773333v124.330667l-117.76-120.704a42.752 42.752 0 0 1-6.528-8.661333A42.538667 42.538667 0 0 1 469.333333 512V256h85.333334z" fill="#848A90" p-id="1573"></path></svg>