<svg t="1724900824063" class="icon" viewBox="0 0 1024 1024" version="1.1" xmlns="http://www.w3.org/2000/svg" p-id="1120" width="200" height="200"><path d="M725.333333 512l170.666667 170.666667h-128v256h-85.333333v-256h-128l170.666666-170.666667z m-213.333333-384a384 384 0 0 1 383.829333 372.693333L896 512h-85.333333a298.666667 298.666667 0 1 0-308.906667 298.496L512 810.666667v85.333333a384 384 0 0 1 0-768z m42.666667 128v239.744l50.773333 50.773333L554.666667 601.728l-59.776-50.645333A42.666667 42.666667 0 0 1 469.333333 512V256h85.333334z" fill="#848A90" p-id="1121"></path></svg>